# xmcd
#
# Track frame offsets: 
#        150
#        14371
#        30139
#        39048
#        54115
#        64733
#        74935
#        89319
#        102453
#        113082
#        125234
#
# Disc length: 2203 seconds
#
# Revision: 0
# Processed by: cddbd v1.5.2PL0 Copyright (c) Steve Scherf et al.
# Submitted via: ExactAudioCopy v1.0b1
#
DISCID=8d08990b
DTITLE=Tyrannosaurus Rex  - Brondby 1969  FLAC
DYEAR=1900
DGENRE=
TTITLE0=Lion and Unicorn-Hot Rod Mama
TTITLE1=Debora
TTITLE2=Stacey Grove
TTITLE3=Mustang Ford
TTITLE4=One Inch Rock
TTITLE5=Eastern Spell
TTITLE6=Wind Quartets
TTITLE7=Conesuala
TTITLE8=Strange Orchestras
TTITLE9=Salamand Palaganda
TTITLE10=The Wizard
EXTD=
EXTT0=
EXTT1=
EXTT2=
EXTT3=
EXTT4=
EXTT5=
EXTT6=
EXTT7=
EXTT8=
EXTT9=
EXTT10=
PLAYORDER=
